<?xml version="1.0" encoding="UTF-8" standalone="no"?>
<!-- Generator: Adobe Illustrator 13.0.0, SVG Export Plug-In . SVG Version: 6.00 Build 14948)  -->

<svg
   xmlns:dc="http://purl.org/dc/elements/1.1/"
   xmlns:cc="http://creativecommons.org/ns#"
   xmlns:rdf="http://www.w3.org/1999/02/22-rdf-syntax-ns#"
   xmlns:svg="http://www.w3.org/2000/svg"
   xmlns="http://www.w3.org/2000/svg"
   xmlns:sodipodi="http://sodipodi.sourceforge.net/DTD/sodipodi-0.dtd"
   xmlns:inkscape="http://www.inkscape.org/namespaces/inkscape"
   version="1.1"
   id="ic_empty_Dark_transactions"
   x="0px"
   y="0px"
   width="100px"
   height="100px"
   viewBox="0 0 100 100"
   enable-background="new 0 0 100 100"
   xml:space="preserve"
   sodipodi:docname="img-empty-transactions.svg"
   inkscape:version="0.92.4 (5da689c313, 2019-01-14)"><metadata
   id="metadata6697"><rdf:RDF><cc:Work
       rdf:about=""><dc:format>image/svg+xml</dc:format><dc:type
         rdf:resource="http://purl.org/dc/dcmitype/StillImage" /></cc:Work></rdf:RDF></metadata><defs
   id="defs6695"><meshgradient
     inkscape:collect="always"
     id="meshgradient7270"
     gradientUnits="userSpaceOnUse"
     x="37.29953"
     y="40.22134"
     gradientTransform="translate(-1.6183376,-1.3313374)"><meshrow
       id="meshrow7272"><meshpatch
         id="meshpatch7274"><stop
           path="c 7.45724,0  14.9145,0  22.3717,0"
           style="stop-color:#ffffff;stop-opacity:1"
           id="stop7276" /><stop
           path="c 0,9.0668  0,18.1336  0,27.2004"
           style="stop-color:#505050;stop-opacity:1"
           id="stop7278" /><stop
           path="c -7.45724,0  -14.9145,0  -22.3717,0"
           style="stop-color:#ffffff;stop-opacity:1"
           id="stop7280" /><stop
           path="c 0,-9.0668  0,-18.1336  0,-27.2004"
           style="stop-color:#505050;stop-opacity:1"
           id="stop7282" /></meshpatch></meshrow></meshgradient></defs><sodipodi:namedview
   pagecolor="#ffffff"
   bordercolor="#666666"
   borderopacity="1"
   objecttolerance="10"
   gridtolerance="10"
   guidetolerance="10"
   inkscape:pageopacity="0"
   inkscape:pageshadow="2"
   inkscape:window-width="1920"
   inkscape:window-height="1017"
   id="namedview6693"
   showgrid="false"
   inkscape:zoom="2.36"
   inkscape:cx="50"
   inkscape:cy="50"
   inkscape:window-x="1912"
   inkscape:window-y="-1"
   inkscape:window-maximized="1"
   inkscape:current-layer="ic_empty_Dark_transactions" />
<g
   id="Group_9036">
	<path
   id="Path_18988"
   fill="#505050"
   d="M50,26c-13.255,0-24,10.745-24,24s10.745,24,24,24s24-10.745,24-24S63.255,26,50,26z    M50,68c-9.941,0-18-8.059-18-18c0-9.941,8.059-18,18-18c9.941,0,18,8.059,18,18C68,59.941,59.941,68,50,68z" />
	<g
   id="Group_9035">
		<g
   id="Group_9034">
			<path
   id="Path_18990"
   fill="#505050"
   d="M50,31c-10.494,0-19,8.507-19,19s8.506,19,19,19s19-8.507,19-19     C68.988,39.511,60.488,31.012,50,31z M50,67c-9.389,0-17-7.611-17-17c0-9.389,7.611-17,17-17c9.389,0,17,7.611,17,17     C66.99,59.385,59.385,66.989,50,67z" />
			<path
   id="Rectangle_4693"
   fill="#505050"
   d="M83,56h2v4h-2V56z" />
			<path
   id="Rectangle_4694"
   fill="#505050"
   d="M83,44h2v8h-2V44z" />
			<path
   id="Rectangle_4695"
   fill="#505050"
   d="M15,48h2v8h-2V48z" />
			<path
   id="Rectangle_4696"
   fill="#505050"
   d="M15,40h2v4h-2V40z" />
			<path
   id="Path_18991"
   fill="#505050"
   d="M95.162,71H85v-7h-2v9h7.838L76,90.456L61.162,73H68v-2h-4.461     c11.607-7.467,14.964-22.928,7.498-34.535c-6.391-9.933-18.859-14.036-29.898-9.839L24,6.456L4.838,29H15v7h2v-9H9.162L24,9.544     L38.838,27H32v2h4.461c-11.607,7.466-14.964,22.928-7.498,34.535c6.389,9.933,18.859,14.035,29.898,9.839L76,93.544L95.162,71z      M27,50c0-12.703,10.297-23,23-23s23,10.297,23,23S62.703,73,50,73C37.303,72.986,27.014,62.697,27,50z" />
		</g>
	</g>
</g>
<path
   id="Rectangle_4697"
   fill="none"
   d="M0,0h100v100H0V0z" />

<text
   xml:space="preserve"
   style="font-style:normal;font-weight:normal;font-size:32.10743332px;line-height:1.25;font-family:sans-serif;letter-spacing:0px;word-spacing:0px;fill:#505050;fill-opacity:1;stroke:url(#meshgradient7270);stroke-width:3.00999999;stroke-miterlimit:4;stroke-dasharray:none;stroke-opacity:1"
   x="35.38332"
   y="64.162064"
   id="text6576"
   transform="scale(1.0473187,0.95481918)"><tspan
     sodipodi:role="line"
     id="tspan6574"
     x="35.38332"
     y="64.162064"
     style="fill:#505050;fill-opacity:1;stroke:url(#meshgradient7270);stroke-width:3.00999999;stroke-miterlimit:4;stroke-dasharray:none;stroke-opacity:1">C</tspan></text>
</svg>