<?xml version="1.0" encoding="UTF-8" standalone="no"?>
<!-- Generator: Adobe Illustrator 13.0.0, SVG Export Plug-In . SVG Version: 6.00 Build 14948)  -->

<svg
   xmlns:dc="http://purl.org/dc/elements/1.1/"
   xmlns:cc="http://creativecommons.org/ns#"
   xmlns:rdf="http://www.w3.org/1999/02/22-rdf-syntax-ns#"
   xmlns:svg="http://www.w3.org/2000/svg"
   xmlns="http://www.w3.org/2000/svg"
   xmlns:sodipodi="http://sodipodi.sourceforge.net/DTD/sodipodi-0.dtd"
   xmlns:inkscape="http://www.inkscape.org/namespaces/inkscape"
   version="1.1"
   id="ic_empty_dark_multisend"
   x="0px"
   y="0px"
   width="100px"
   height="100px"
   viewBox="0 0 100 100"
   enable-background="new 0 0 100 100"
   xml:space="preserve"
   sodipodi:docname="img-empty-multisend.svg"
   inkscape:version="0.92.4 (5da689c313, 2019-01-14)"><metadata
   id="metadata13353"><rdf:RDF><cc:Work
       rdf:about=""><dc:format>image/svg+xml</dc:format><dc:type
         rdf:resource="http://purl.org/dc/dcmitype/StillImage" /></cc:Work></rdf:RDF></metadata><defs
   id="defs13351" /><sodipodi:namedview
   pagecolor="#ffffff"
   bordercolor="#666666"
   borderopacity="1"
   objecttolerance="10"
   gridtolerance="10"
   guidetolerance="10"
   inkscape:pageopacity="0"
   inkscape:pageshadow="2"
   inkscape:window-width="1920"
   inkscape:window-height="1017"
   id="namedview13349"
   showgrid="false"
   inkscape:zoom="2.36"
   inkscape:cx="50"
   inkscape:cy="50"
   inkscape:window-x="1912"
   inkscape:window-y="-1"
   inkscape:window-maximized="1"
   inkscape:current-layer="ic_empty_dark_multisend" />
<g
   id="Group_9062">
	<g
   id="Group_9060">
		<path
   id="Rectangle_4717"
   fill="#505050"
   d="M45,18h10v9H45V18z" />
		<g
   id="Group_9059">
			<path
   id="Rectangle_4718"
   fill="#505050"
   d="M14,66h6v10h-6V66z" />
			<path
   id="Rectangle_4719"
   fill="#505050"
   d="M80,66h6v10h-6V66z" />
			<path
   id="Rectangle_4720"
   fill="#505050"
   d="M47,66h6v10h-6V66z" />
		</g>
	</g>
	<g
   id="Group_9061">
		<path
   id="Rectangle_4722"
   fill="#505050"
   d="M67,40h2v4h-2V40z" />
		<circle
   id="Ellipse_643"
   fill="#505050"
   cx="50"
   cy="73"
   r="1" />
		<circle
   id="Ellipse_644"
   fill="#505050"
   cx="83"
   cy="73"
   r="1" />
		<path
   id="Rectangle_4723"
   fill="#505050"
   d="M32,58h4v2h-4V58z" />
		<path
   id="Path_19007"
   fill="#505050"
   d="M16,65h-3v3H7v4h2v-2h4v7h8v-7h4v21H9V76H7v17h20V68h-6v-3h-3v-5h10v-2H16V65z M19,67v8    h-4v-8H19z" />
		<circle
   id="Ellipse_645"
   fill="#505050"
   cx="17"
   cy="73"
   r="1" />
		<path
   id="Path_19008"
   fill="#505050"
   d="M87,68v-3h-3v-7H51v-5h18v-5h-2v3H33V28h34v8h2v-8h4V17H59.46    c2.212-2.463,2.009-6.252-0.454-8.465c-2.463-2.212-6.252-2.009-8.465,0.454C50.344,9.209,50.163,9.443,50,9.69    c-1.819-2.766-5.537-3.534-8.303-1.715c-2.767,1.819-3.534,5.537-1.715,8.303c0.167,0.254,0.354,0.496,0.558,0.722H27v11h4v25h18    v5h-9v2h9v5h-3v3h-6v16h2V70h4v7h8v-7h4v21H42v-3h-2v5h20V68h-6v-3h-3v-5h31v5h-3v3h-6v12h2V70h4v7h8v-7h4v21H75v-7h-2v9h20V68H87    z M71,19v7H56v-7H71z M51,13c0-2.209,1.791-4,4-4s4,1.791,4,4s-1.791,4-4,4h-4V13z M51,19h3v7h-8v-7H51z M45,9    c2.209,0,4,1.791,4,4v4h-4c-2.209,0-4-1.791-4-4S42.791,9,45,9z M29,26v-7h15v7H29z M52,67v8h-4v-8H52z M85,75h-4v-8h4V75z" />
	</g>
</g>
<path
   id="Rectangle_4724"
   fill="none"
   d="M0,0h100v100H0V0z" />

<text
   xml:space="preserve"
   style="font-style:normal;font-weight:normal;font-size:26.06913376px;line-height:1.25;font-family:sans-serif;letter-spacing:0px;word-spacing:0px;fill:#505050;fill-opacity:1;stroke:url(#meshgradient7270);stroke-width:2.443923;stroke-miterlimit:4;stroke-dasharray:none;stroke-opacity:1"
   x="38.505924"
   y="51.011986"
   id="text6576"
   transform="scale(1.0473187,0.95481919)"><tspan
     sodipodi:role="line"
     id="tspan6574"
     x="38.505924"
     y="51.011986"
     style="fill:#505050;fill-opacity:1;stroke:url(#meshgradient7270);stroke-width:2.443923;stroke-miterlimit:4;stroke-dasharray:none;stroke-opacity:1">C</tspan></text>
</svg>