<?xml version="1.0" encoding="UTF-8" standalone="no"?>
<!-- Generator: Adobe Illustrator 13.0.0, SVG Export Plug-In . SVG Version: 6.00 Build 14948)  -->

<svg
   xmlns:dc="http://purl.org/dc/elements/1.1/"
   xmlns:cc="http://creativecommons.org/ns#"
   xmlns:rdf="http://www.w3.org/1999/02/22-rdf-syntax-ns#"
   xmlns:svg="http://www.w3.org/2000/svg"
   xmlns="http://www.w3.org/2000/svg"
   xmlns:sodipodi="http://sodipodi.sourceforge.net/DTD/sodipodi-0.dtd"
   xmlns:inkscape="http://www.inkscape.org/namespaces/inkscape"
   version="1.1"
   id="ic_dark_staking_on"
   x="0px"
   y="0px"
   width="100px"
   height="100px"
   viewBox="0 0 100 100"
   enable-background="new 0 0 100 100"
   xml:space="preserve"
   sodipodi:docname="img-empty-staking-on.svg"
   inkscape:version="0.92.4 (5da689c313, 2019-01-14)"><metadata
   id="metadata14007"><rdf:RDF><cc:Work
       rdf:about=""><dc:format>image/svg+xml</dc:format><dc:type
         rdf:resource="http://purl.org/dc/dcmitype/StillImage" /></cc:Work></rdf:RDF></metadata><defs
   id="defs14005" /><sodipodi:namedview
   pagecolor="#ffffff"
   bordercolor="#666666"
   borderopacity="1"
   objecttolerance="10"
   gridtolerance="10"
   guidetolerance="10"
   inkscape:pageopacity="0"
   inkscape:pageshadow="2"
   inkscape:window-width="1920"
   inkscape:window-height="1017"
   id="namedview14003"
   showgrid="false"
   inkscape:zoom="2.36"
   inkscape:cx="50"
   inkscape:cy="50"
   inkscape:window-x="1912"
   inkscape:window-y="-1"
   inkscape:window-maximized="1"
   inkscape:current-layer="ic_dark_staking_on" />
<g
   id="Group_9053">
	<g
   id="Group_9051">
		<ellipse
   id="Ellipse_640"
   fill="#505050"
   cx="80"
   cy="56"
   rx="12"
   ry="4" />
		<ellipse
   id="Ellipse_641"
   fill="#505050"
   cx="64"
   cy="68"
   rx="12"
   ry="4" />
		<path
   id="Rectangle_4706"
   fill="#505050"
   d="M32,24h14v14H32V24z" />
	</g>
	<g
   id="Group_9052">
		<path
   id="Rectangle_4707"
   fill="#505050"
   d="M12,60h2v4h-2V60z" />
		<path
   id="Path_19001"
   fill="#505050"
   d="M92.046,57.994C92.627,57.49,92.973,56.77,93,56c0-3.283-6.54-5-13-5s-13,1.717-13,5    c0.027,0.77,0.373,1.49,0.954,1.994c-1.104,0.895-1.274,2.514-0.382,3.619c0.113,0.14,0.242,0.268,0.382,0.381    c-0.341,0.322-0.604,0.715-0.774,1.15c-0.387-0.035-0.779-0.063-1.18-0.084V39h5V23H52.645c3.869-3.113,4.484-8.773,1.371-12.644    c-3.111-3.871-8.772-4.485-12.644-1.372C40.385,9.778,39.577,10.772,39,11.9c-2.258-4.424-7.675-6.181-12.1-3.922    c-4.424,2.258-6.181,7.675-3.922,12.1c0.577,1.131,1.388,2.127,2.378,2.923H7v16h5v17h2V39h50v24c-6.46,0-13,1.717-13,5    c0.027,0.77,0.373,1.49,0.954,1.994c-1.104,0.895-1.274,2.514-0.382,3.619c0.113,0.14,0.242,0.268,0.382,0.381    c-0.304,0.287-0.552,0.628-0.728,1.006H14v-7h-2v9h39.23c0.178,0.373,0.424,0.71,0.724,0.994    c-1.104,0.895-1.274,2.514-0.382,3.619c0.113,0.14,0.242,0.268,0.382,0.381c-1.104,0.895-1.274,2.514-0.382,3.619    c0.113,0.14,0.242,0.268,0.382,0.381C51.37,86.5,51.023,87.229,51,88c0,3.283,6.54,5,13,5c5.874,0,11.8-1.424,12.826-4.15    C77.868,88.943,78.932,89,80,89c6.46,0,13-1.717,13-5c-0.023-0.771-0.37-1.5-0.954-2.006c1.104-0.895,1.274-2.514,0.382-3.619    c-0.113-0.141-0.242-0.268-0.382-0.381c1.104-0.895,1.274-2.514,0.382-3.619c-0.113-0.141-0.242-0.268-0.382-0.381    c1.104-0.895,1.274-2.514,0.382-3.619c-0.113-0.141-0.242-0.268-0.382-0.381c1.104-0.895,1.274-2.514,0.382-3.619    c-0.113-0.141-0.242-0.268-0.382-0.381c1.104-0.895,1.274-2.514,0.382-3.619c-0.113-0.141-0.242-0.268-0.382-0.381    c1.104-0.895,1.274-2.514,0.382-3.619C92.314,58.234,92.186,58.107,92.046,57.994z M31,37H9V25h22V37z M24,16c0-3.866,3.134-7,7-7    s7,3.134,7,7v7h-7C27.136,22.996,24.004,19.864,24,16z M45,37H33V25h12V37z M40,23v-7c0-3.866,3.134-7,7-7s7,3.134,7,7    s-3.134,7-7,7H40z M47,37V25h22v12H47z M51,76c0.001,0.174,0.021,0.346,0.061,0.516C51.021,76.346,51,76.174,51,76z M64,91    c-7.117,0-11-1.982-11-3c0-0.241,0.247-0.539,0.678-0.85C56.18,88.37,60.1,89,64,89s7.82-0.63,10.322-1.85    C74.753,87.461,75,87.759,75,88C75,89.018,71.117,91,64,91z M64,87c-7.117,0-11-1.982-11-3c0-0.241,0.247-0.539,0.678-0.85    C56.18,84.37,60.1,85,64,85s7.82-0.63,10.322-1.85C74.753,83.461,75,83.759,75,84C75,85.018,71.117,87,64,87z M64,83    c-7.117,0-11-1.982-11-3c0-0.241,0.247-0.539,0.678-0.85C56.18,80.37,60.1,81,64,81s7.82-0.63,10.322-1.85    C74.753,79.461,75,79.759,75,80C75,81.018,71.117,83,64,83z M64,79c-7.117,0-11-1.982-11-3c0-0.241,0.247-0.539,0.678-0.85    C56.18,76.37,60.1,77,64,77s7.82-0.63,10.322-1.85C74.753,75.461,75,75.759,75,76C75,77.018,71.117,79,64,79z M64,75    c-7.117,0-11-1.982-11-3c0-0.241,0.247-0.539,0.678-0.85C56.18,72.37,60.1,73,64,73s7.82-0.63,10.322-1.85    C74.753,71.461,75,71.759,75,72C75,73.018,71.117,75,64,75z M64,71c-7.117,0-11-1.982-11-3s3.883-3,11-3s11,1.982,11,3    S71.117,71,64,71z M80,87c-1.207,0-2.3-0.068-3.313-0.168c-0.17-0.311-0.388-0.594-0.643-0.838    c0.342-0.322,0.607-0.715,0.781-1.151C77.868,84.943,78.927,85,80,85c3.9,0,7.82-0.63,10.322-1.85C90.753,83.461,91,83.759,91,84    C91,85.018,87.117,87,80,87z M80,83c-1.207,0-2.3-0.068-3.313-0.168c-0.17-0.311-0.388-0.594-0.643-0.838    c0.342-0.322,0.607-0.715,0.781-1.151C77.868,80.943,78.927,81,80,81c3.9,0,7.82-0.63,10.322-1.85C90.753,79.461,91,79.759,91,80    C91,81.018,87.117,83,80,83z M80,79c-1.207,0-2.3-0.068-3.313-0.168c-0.17-0.311-0.388-0.594-0.643-0.838    c0.342-0.322,0.607-0.715,0.781-1.151C77.868,76.943,78.927,77,80,77c3.9,0,7.82-0.63,10.322-1.85C90.753,75.461,91,75.759,91,76    C91,77.018,87.117,79,80,79z M80,75c-1.207,0-2.3-0.068-3.313-0.168c-0.17-0.311-0.388-0.594-0.643-0.838    c0.342-0.322,0.607-0.715,0.781-1.151C77.868,72.943,78.927,73,80,73c3.9,0,7.82-0.63,10.322-1.85C90.753,71.461,91,71.759,91,72    C91,73.018,87.117,75,80,75z M80,71c-1.207,0-2.3-0.068-3.313-0.168c-0.17-0.311-0.388-0.594-0.643-0.838    c0.342-0.322,0.607-0.715,0.781-1.151C77.868,68.943,78.927,69,80,69c3.9,0,7.82-0.63,10.322-1.85C90.753,67.461,91,67.759,91,68    C91,69.018,87.117,71,80,71z M80,67c-1.2,0-2.287-0.066-3.3-0.166c-0.621-1.162-2.175-2.063-4.214-2.7    C74.947,64.727,77.471,65.018,80,65c3.9,0,7.82-0.63,10.322-1.85C90.753,63.461,91,63.759,91,64C91,65.018,87.117,67,80,67z     M69.368,63.417c0.097-0.097,0.2-0.185,0.31-0.267c0.592,0.276,1.201,0.512,1.826,0.701    C70.799,63.678,70.086,63.532,69.368,63.417z M80,63c-7.117,0-11-1.982-11-3c0-0.241,0.247-0.539,0.678-0.85    C72.18,60.37,76.1,61,80,61s7.82-0.63,10.322-1.85C90.753,59.461,91,59.759,91,60C91,61.018,87.117,63,80,63z M80,59    c-7.117,0-11-1.982-11-3s3.883-3,11-3s11,1.982,11,3S87.117,59,80,59z" />
	</g>
</g>
<path
   id="Rectangle_4709"
   fill="none"
   d="M0,0h100v100H0V0z" />

<text
   xml:space="preserve"
   style="font-style:normal;font-weight:normal;font-size:32.10743332px;line-height:1.25;font-family:sans-serif;letter-spacing:0px;word-spacing:0px;fill:#505050;fill-opacity:1;stroke:url(#meshgradient7270);stroke-width:3.00999999;stroke-miterlimit:4;stroke-dasharray:none;stroke-opacity:1"
   x="24.281528"
   y="70.374969"
   id="text6576"
   transform="scale(1.0473187,0.95481919)"><tspan
     sodipodi:role="line"
     id="tspan6574"
     x="24.281528"
     y="70.374969"
     style="fill:#505050;fill-opacity:1;stroke:url(#meshgradient7270);stroke-width:3.00999999;stroke-miterlimit:4;stroke-dasharray:none;stroke-opacity:1">C</tspan></text>
</svg>